<svg xmlns="http://www.w3.org/2000/svg" version="1.1" x="0" y="0" viewBox="0 0 112 70" xml:space="preserve"><style type="text/css">
	.st0{fill:#B0003E;}
	.st1{fill:#FFFFFF;}
</style><rect x="21" y="-21" transform="matrix(5.773965e-11 -1 1 5.773965e-11 21 91)" class="st0" width="70" height="112"/><path class="st1" d="M58.15 32.74l0.22-2.08h-0.09l-0.64 1.68 -2.24 3.92h-0.66l-2.35-3.93 -0.66-1.66h-0.08l0.3 2.07v5.46H50v-10.5h1.88l2.81 4.8 0.5 1.2h0.06l0.45-1.23 2.66-4.77h1.86v10.5h-2.05V32.74zM64.25 27.69h6.23v1.83h-4.17v2.44h3.79v1.83h-3.79v2.56h4.25v1.83h-6.3V27.69zM76.94 32.71l-0.82-1.65h-0.08l0.24 1.65v5.48h-1.95V27.61h1.5l3.97 5.6 0.79 1.6h0.08l-0.24-1.6v-5.52h1.95v10.58h-1.5L76.94 32.71zM92.13 27.69h1.95v6.78c0 0.68-0.09 1.27-0.27 1.76 -0.18 0.49-0.43 0.9-0.75 1.21 -0.32 0.32-0.71 0.56-1.17 0.71s-0.96 0.23-1.51 0.23c-2.66 0-3.99-1.22-3.99-3.65v-7.04h2.06v6.63c0 0.41 0.04 0.76 0.11 1.04 0.08 0.29 0.19 0.52 0.35 0.69 0.16 0.18 0.36 0.3 0.6 0.38 0.24 0.08 0.52 0.11 0.84 0.11 0.63 0 1.08-0.17 1.37-0.52s0.42-0.92 0.42-1.7V27.69z"/><rect x="-0.01" y="64" class="st1" width="112" height="3"/><path class="st1" d="M35.32 40.66c0 1.28-0.45 1.18-0.45 2.71 0 1.52 0.17 2.33 0.34 2.72 0.17 0.39-0.06 0.6-0.6 0.96 -0.54 0.35-1.2-0.3-1.2-0.3s-0.1-0.13-1.02-0.69c-0.92-0.57-1.9-0.36-2.13-0.26 -0.24 0.11-2.75 1.31-2.75 1.31s-2.51-1.2-2.75-1.31c-0.24-0.1-1.21-0.31-2.13 0.26 -0.92 0.56-1.02 0.69-1.02 0.69s-0.65 0.65-1.2 0.3c-0.54-0.35-0.77-0.57-0.6-0.96 0.17-0.4 0.34-1.21 0.34-2.72 0-1.52-0.45-1.43-0.45-2.71 0-1.28 0.68-2.65 2.08-2.65 1.41 0 1.86 1.18 1.86 1.66 0 0.46-0.04 1.27-0.75 1.27 -0.54 0-0.74-0.41-0.74-0.82 0 0-0.3 0.18-0.3 1.2 0 1.02 1.34 1.43 2.07 1.43 0.74 0 1.73-0.63 1.73-2.12 0 0 0.21-1.5-1.33-3.35 0 0 0.01-0.86 0.3-1.33h5.78c0.28 0.47 0.3 1.33 0.3 1.33 -1.54 1.85-1.34 3.35-1.34 3.35 0 1.49 1 2.12 1.74 2.12 0.73 0 2.07-0.41 2.07-1.43 0-1.02-0.3-1.2-0.3-1.2 0 0.41-0.19 0.82-0.74 0.82 -0.71 0-0.75-0.81-0.75-1.27 0-0.47 0.45-1.66 1.86-1.66C34.64 38.01 35.32 39.38 35.32 40.66zM21.77 27.99c1.41 0 1.86-1.18 1.86-1.65 0-0.47-0.04-1.28-0.75-1.28 -0.54 0-0.74 0.41-0.74 0.82 0 0-0.3-0.18-0.3-1.2 0-1.02 1.34-1.43 2.07-1.43 0.74 0 1.73 0.64 1.73 2.12 0 0 0.21 1.5-1.33 3.35 0 0 0.01 0.86 0.3 1.33h5.78c0.28-0.47 0.3-1.33 0.3-1.33 -1.54-1.85-1.34-3.35-1.34-3.35 0-1.48 1-2.12 1.74-2.12 0.73 0 2.07 0.41 2.07 1.43 0 1.02-0.3 1.2-0.3 1.2 0-0.41-0.19-0.82-0.74-0.82 -0.71 0-0.75 0.81-0.75 1.28 0 0.46 0.45 1.65 1.86 1.65 1.41 0 2.08-1.37 2.08-2.65 0-1.27-0.45-1.18-0.45-2.7 0-1.52 0.17-2.33 0.34-2.73 0.17-0.39-0.06-0.6-0.6-0.96 -0.54-0.35-1.2 0.3-1.2 0.3s-0.1 0.13-1.02 0.69c-0.92 0.57-1.9 0.37-2.13 0.26 -0.24-0.11-2.75-1.31-2.75-1.31s-2.51 1.2-2.75 1.31c-0.24 0.11-1.21 0.31-2.13-0.26 -0.92-0.56-1.02-0.69-1.02-0.69s-0.65-0.65-1.2-0.3c-0.54 0.36-0.77 0.57-0.6 0.96 0.17 0.4 0.34 1.21 0.34 2.73 0 1.52-0.45 1.43-0.45 2.7C19.68 26.62 20.36 27.99 21.77 27.99zM31.92 33L31.92 33c0-0.81-0.66-1.47-1.47-1.47h-5.89c-0.81 0-1.47 0.66-1.47 1.47v0c0 0.81 0.66 1.47 1.47 1.47h5.89C31.26 34.47 31.92 33.82 31.92 33z"/></svg>