<svg xmlns="http://www.w3.org/2000/svg" version="1.1" x="0" y="0" viewBox="0 0 112 190" xml:space="preserve"><style type="text/css">
	.st0{fill:#B0003E;}
	.st1{fill:#FFFFFF;}
</style><rect class="st0" width="112" height="190"/><path class="st1" d="M26.97 99.04h1.1v4.13l3.89-4.13h1.33l-3.99 4.19 4.38 5.11h-1.43l-4.17-5.01v5.01h-1.1V99.04zM44.35 108.33h-1.2l-1.21-2.85h-3.63l-1.21 2.85h-1.2l4.21-9.66L44.35 108.33zM38.64 104.54h2.96l-1.48-3.42L38.64 104.54zM53.06 105.72c0 1.7-1.18 2.85-2.98 2.85 -1.47 0-2.5-0.78-2.85-2.16l1-0.49c0.27 1.13 0.91 1.72 1.85 1.72 1.12 0 1.86-0.71 1.86-1.73 0-0.83-0.48-1.44-1.44-1.86l-1.13-0.48c-1.23-0.52-1.83-1.33-1.83-2.46 0-1.3 1.07-2.29 2.61-2.29 1.12 0 1.95 0.48 2.41 1.4l-0.91 0.58c-0.4-0.7-0.91-1.07-1.57-1.07 -0.83 0-1.42 0.56-1.42 1.35 0 0.66 0.4 1.13 1.25 1.5l1.33 0.58C52.45 103.69 53.06 104.55 53.06 105.72zM57.91 100.09h-2.63v-1.05h6.36v1.05h-2.63v8.24h-1.1V100.09zM64.37 99.04h4.9v1.01h-3.8v2.67h3.8v1.03h-3.8v3.56h3.8v1.03h-4.9V99.04zM73.16 99.04h4.9v1.01h-3.8v2.67h3.8v1.03h-3.8v3.56h3.8v1.03h-4.9V99.04zM81.69 99.04h1.1v8.24h3.51v1.05h-4.62V99.04zM25.08 146.58v5.79c0 1.86 0.77 2.73 2.5 2.73 1.73 0 2.48-0.87 2.5-2.73v-5.79h1.11v5.79c0 2.51-1.18 3.76-3.6 3.76 -2.42 0-3.6-1.25-3.6-3.76v-5.79H25.08zM36.78 147.64h-2.63v-1.05h6.36v1.05h-2.63v8.24h-1.1V147.64zM43.53 146.58h2.18c0.88 0 1.56 0.03 2.13 0.47 0.53 0.42 0.87 1.16 0.87 2.07 0 1.52-0.87 2.33-2.51 2.33h-0.19l3.55 4.43h-1.4l-3.39-4.43h-0.13v4.43h-1.1V146.58zM44.64 150.63h0.82c1.46 0 2.17-0.21 2.17-1.5 0-1.35-0.7-1.61-2.17-1.61h-0.82V150.63zM52.27 146.58h4.9v1.01h-3.8v2.67h3.8v1.03h-3.8v3.56h3.8v1.03h-4.9V146.58zM65.79 147.39c-0.98 0-1.96 0.42-2.65 1.13 -0.71 0.74-1.07 1.65-1.07 2.74 0 0.86 0.21 1.59 0.64 2.2 0.74 1.05 1.87 1.65 3.13 1.65 1.17 0 2.2-0.48 3.04-1.47v1.47c-0.92 0.66-2 1.01-3.13 1.01 -0.99 0-1.94-0.3-2.74-0.86 -1.35-0.94-2.09-2.34-2.09-3.99 0-1.44 0.48-2.6 1.46-3.55 0.95-0.91 2.09-1.37 3.46-1.37 1.1 0 2.09 0.34 3.05 1v1.44C67.98 147.83 67 147.39 65.79 147.39zM72.29 146.58h1.1v3.58h4.94v-3.58h1.11v9.3h-1.11v-4.67h-4.94v4.67h-1.1V146.58zM85.08 147.64h-2.63v-1.05h6.36v1.05h-2.63v8.24h-1.1V147.64zM24.82 129.94h5.74v-5.13h-5.74v-1.93h6.33v-5.43H17.77v7.38c-0.69-2.64-2.43-4.81-5.04-6.12 -1.85-0.93-4.45-1.26-7.93-1.26H0v20.02h4.27c4.01 0 7.09-0.2 9.69-1.99 1.93-1.32 3.24-3.2 3.81-5.4v7.39h13.55v-5.43h-6.5V129.94zM6.12 131.36v-7.75h0.31c2.91 0 4.37 1.23 4.37 3.86C10.8 130.19 9.31 131.31 6.12 131.36zM112 119.69c-1.34-1.46-3.52-2.24-6.54-2.24h-9.04v16.82l-5.88-16.82h-8.01l-6.08 17.05 -5.96-17.05h-8.01l-6.02 16.88v-16.88h-7.19v6.66h-4.4v-6.66h-7.2v20.02h7.2v-7.06h4.4v7.06h6.07 1.12 6.61l0.62-2.52h5.43l0.64 2.52h5.63 2.1 5.63l0.61-2.52h5.44l0.64 2.52h6.61 1.12 5.93v-6.61l3.5 6.61H112v-4.63l-2.31-3.52c0.9-0.11 1.69-0.48 2.31-1.06V119.69zM64.89 130.19l0.62-2.27c0.28-1.06 0.7-2.46 0.81-4.4h0.14c0.11 1.94 0.53 3.34 0.81 4.4l0.62 2.27H64.89zM84.94 130.19l0.61-2.27c0.28-1.06 0.7-2.46 0.82-4.4h0.14c0.11 1.94 0.53 3.34 0.81 4.4l0.61 2.27H84.94zM104.59 126.52h-1.12v-3.92h1.12c1.4 0 2.13 0.76 2.13 1.99C106.72 125.82 105.97 126.52 104.59 126.52zM67.58 60.56c0 1.9-0.66 1.76-0.66 4.01 0 2.25 0.25 3.45 0.5 4.03 0.25 0.58-0.09 0.89-0.89 1.42 -0.81 0.52-1.78-0.45-1.78-0.45s-0.14-0.2-1.5-1.02c-1.36-0.84-2.81-0.53-3.16-0.38C59.72 68.33 56 70.11 56 70.11s-3.72-1.78-4.08-1.94c-0.35-0.15-1.8-0.46-3.16 0.38 -1.36 0.83-1.5 1.02-1.5 1.02s-0.97 0.97-1.78 0.45c-0.81-0.52-1.14-0.84-0.89-1.42 0.25-0.59 0.5-1.79 0.5-4.03 0-2.26-0.67-2.12-0.67-4.01 0-1.9 1-3.93 3.09-3.93 2.09 0 2.76 1.76 2.76 2.45 0 0.69-0.05 1.89-1.11 1.89 -0.81 0-1.09-0.61-1.09-1.22 0 0-0.45 0.27-0.45 1.78s1.98 2.12 3.06 2.12c1.09 0 2.56-0.94 2.56-3.14 0 0 0.31-2.22-1.97-4.96 0 0 0.02-1.28 0.45-1.97h8.57c0.41 0.7 0.45 1.97 0.45 1.97 -2.28 2.74-1.98 4.96-1.98 4.96 0 2.2 1.48 3.14 2.57 3.14 1.08 0 3.06-0.61 3.06-2.12s-0.45-1.78-0.45-1.78c0 0.61-0.28 1.22-1.09 1.22 -1.06 0-1.11-1.2-1.11-1.89 0-0.7 0.66-2.45 2.76-2.45C66.58 56.63 67.58 58.66 67.58 60.56zM47.51 41.78c2.09 0 2.76-1.76 2.76-2.44 0-0.7-0.05-1.9-1.11-1.9 -0.81 0-1.09 0.61-1.09 1.22 0 0-0.45-0.27-0.45-1.78 0-1.5 1.98-2.12 3.06-2.12 1.09 0 2.56 0.95 2.56 3.14 0 0 0.31 2.22-1.97 4.96 0 0 0.02 1.28 0.45 1.97h8.57c0.41-0.7 0.45-1.97 0.45-1.97 -2.28-2.74-1.98-4.96-1.98-4.96 0-2.19 1.48-3.14 2.57-3.14 1.08 0 3.06 0.61 3.06 2.12 0 1.5-0.45 1.78-0.45 1.78 0-0.61-0.28-1.22-1.09-1.22 -1.06 0-1.11 1.2-1.11 1.9 0 0.69 0.66 2.44 2.76 2.44 2.08 0 3.09-2.03 3.09-3.93 0-1.89-0.66-1.76-0.66-4 0-2.26 0.25-3.46 0.5-4.04 0.25-0.58-0.09-0.88-0.89-1.42 -0.81-0.52-1.78 0.45-1.78 0.45s-0.14 0.2-1.5 1.02c-1.36 0.84-2.81 0.55-3.16 0.38C59.72 30.08 56 28.31 56 28.31s-3.72 1.78-4.08 1.94c-0.35 0.16-1.8 0.46-3.16-0.38 -1.36-0.83-1.5-1.02-1.5-1.02s-0.97-0.97-1.78-0.45c-0.81 0.53-1.14 0.84-0.89 1.42 0.25 0.59 0.5 1.79 0.5 4.04 0 2.25-0.67 2.12-0.67 4C44.42 39.75 45.42 41.78 47.51 41.78zM62.54 49.8v-1.18c0-0.88-0.71-1.59-1.59-1.59h-9.91c-0.88 0-1.59 0.71-1.59 1.59v1.18c0 0.88 0.71 1.59 1.59 1.59h9.91C61.83 51.39 62.54 50.68 62.54 49.8z"/><rect x="0" y="184" class="st1" width="112" height="3"/></svg>