<svg xmlns="http://www.w3.org/2000/svg" version="1.1" x="0" y="0" viewBox="0 0 70 70" xml:space="preserve"><style type="text/css">
	.st0{fill:#B0003E;}
	.st1{fill:#FFFFFF;}
</style><path class="st1" d="M46.58 46.35c0 1.9-0.66 1.76-0.66 4.01 0 2.25 0.25 3.45 0.5 4.03 0.25 0.58-0.09 0.89-0.89 1.42 -0.81 0.52-1.78-0.45-1.78-0.45s-0.14-0.2-1.5-1.02c-1.36-0.84-2.81-0.53-3.16-0.38C38.72 54.12 35 55.9 35 55.9s-3.72-1.78-4.08-1.94c-0.35-0.15-1.8-0.46-3.16 0.38 -1.36 0.83-1.5 1.02-1.5 1.02s-0.97 0.97-1.78 0.45c-0.81-0.52-1.14-0.84-0.89-1.42 0.25-0.59 0.5-1.79 0.5-4.03 0-2.26-0.67-2.12-0.67-4.01 0-1.9 1-3.93 3.09-3.93 2.09 0 2.76 1.76 2.76 2.45 0 0.69-0.05 1.89-1.11 1.89 -0.81 0-1.09-0.61-1.09-1.22 0 0-0.45 0.27-0.45 1.78 0 1.5 1.98 2.12 3.06 2.12 1.09 0 2.56-0.94 2.56-3.14 0 0 0.31-2.22-1.97-4.96 0 0 0.02-1.28 0.45-1.97h8.57c0.41 0.7 0.45 1.97 0.45 1.97 -2.28 2.74-1.98 4.96-1.98 4.96 0 2.2 1.48 3.14 2.57 3.14 1.08 0 3.06-0.61 3.06-2.12 0-1.5-0.45-1.78-0.45-1.78 0 0.61-0.28 1.22-1.09 1.22 -1.06 0-1.11-1.2-1.11-1.89 0-0.7 0.66-2.45 2.76-2.45C45.58 42.42 46.58 44.45 46.58 46.35zM26.51 27.58c2.09 0 2.76-1.76 2.76-2.44 0-0.7-0.05-1.9-1.11-1.9 -0.81 0-1.09 0.61-1.09 1.22 0 0-0.45-0.27-0.45-1.78 0-1.5 1.98-2.12 3.06-2.12 1.09 0 2.56 0.95 2.56 3.14 0 0 0.31 2.22-1.97 4.96 0 0 0.02 1.28 0.45 1.97h8.57c0.41-0.7 0.45-1.97 0.45-1.97 -2.28-2.74-1.98-4.96-1.98-4.96 0-2.19 1.48-3.14 2.57-3.14 1.08 0 3.06 0.61 3.06 2.12 0 1.5-0.45 1.78-0.45 1.78 0-0.61-0.28-1.22-1.09-1.22 -1.06 0-1.11 1.2-1.11 1.9 0 0.69 0.66 2.44 2.76 2.44 2.08 0 3.09-2.03 3.09-3.93 0-1.89-0.66-1.76-0.66-4 0-2.26 0.25-3.46 0.5-4.04 0.25-0.58-0.09-0.88-0.89-1.42 -0.81-0.52-1.78 0.45-1.78 0.45s-0.14 0.2-1.5 1.02c-1.36 0.84-2.81 0.55-3.16 0.38C38.72 15.88 35 14.1 35 14.1s-3.72 1.78-4.08 1.94c-0.35 0.16-1.8 0.46-3.16-0.38 -1.36-0.83-1.5-1.02-1.5-1.02s-0.97-0.97-1.78-0.45c-0.81 0.53-1.14 0.84-0.89 1.42 0.25 0.59 0.5 1.79 0.5 4.04 0 2.25-0.67 2.12-0.67 4C23.42 25.55 24.42 27.58 26.51 27.58zM41.54 35.59v-1.18c0-0.88-0.71-1.59-1.59-1.59h-9.91c-0.88 0-1.59 0.71-1.59 1.59v1.18c0 0.88 0.71 1.59 1.59 1.59h9.91C40.83 37.18 41.54 36.47 41.54 35.59z"/></svg>